<mxfile host="app.diagrams.net" modified="2023-05-27T13:56:02.054Z" agent="Mozilla/5.0 (Windows NT 10.0; Win64; x64) AppleWebKit/537.36 (KHTML, like Gecko) Chrome/113.0.0.0 Safari/537.36" etag="Ozxj823hAzcr_68HKjgz" version="21.3.2" type="device">
  <diagram name="PÃ¡gina-1" id="0d6fhj0Yw0YUExxGPNWd">
    <mxGraphModel dx="1207" dy="579" grid="1" gridSize="10" guides="1" tooltips="1" connect="1" arrows="1" fold="1" page="1" pageScale="1" pageWidth="827" pageHeight="1169" math="0" shadow="0">
      <root>
        <mxCell id="0" />
        <mxCell id="1" parent="0" />
        <mxCell id="yI0ACgLMiFXfZooh-qZ1-10" style="edgeStyle=orthogonalEdgeStyle;rounded=0;orthogonalLoop=1;jettySize=auto;html=1;dashed=1;dashPattern=8 8;" edge="1" parent="1" source="yI0ACgLMiFXfZooh-qZ1-5" target="yI0ACgLMiFXfZooh-qZ1-6">
          <mxGeometry relative="1" as="geometry" />
        </mxCell>
        <mxCell id="yI0ACgLMiFXfZooh-qZ1-5" value="Busqueda y Catalogo de productos" style="shape=module;align=left;spacingLeft=20;align=center;verticalAlign=top;whiteSpace=wrap;html=1;" vertex="1" parent="1">
          <mxGeometry x="130" y="190" width="160" height="70" as="geometry" />
        </mxCell>
        <mxCell id="yI0ACgLMiFXfZooh-qZ1-11" style="edgeStyle=orthogonalEdgeStyle;rounded=0;orthogonalLoop=1;jettySize=auto;html=1;entryX=0.5;entryY=0;entryDx=0;entryDy=0;dashed=1;dashPattern=8 8;" edge="1" parent="1" source="yI0ACgLMiFXfZooh-qZ1-6" target="yI0ACgLMiFXfZooh-qZ1-8">
          <mxGeometry relative="1" as="geometry" />
        </mxCell>
        <mxCell id="yI0ACgLMiFXfZooh-qZ1-6" value="Carrito" style="shape=module;align=left;spacingLeft=20;align=center;verticalAlign=top;whiteSpace=wrap;html=1;" vertex="1" parent="1">
          <mxGeometry x="560" y="190" width="160" height="70" as="geometry" />
        </mxCell>
        <mxCell id="yI0ACgLMiFXfZooh-qZ1-7" value="Historial de pedidos" style="shape=module;align=left;spacingLeft=20;align=center;verticalAlign=top;whiteSpace=wrap;html=1;" vertex="1" parent="1">
          <mxGeometry x="130" y="350" width="160" height="70" as="geometry" />
        </mxCell>
        <mxCell id="yI0ACgLMiFXfZooh-qZ1-15" style="edgeStyle=orthogonalEdgeStyle;rounded=0;orthogonalLoop=1;jettySize=auto;html=1;entryX=1;entryY=0.5;entryDx=0;entryDy=0;dashed=1;dashPattern=8 8;startArrow=classic;startFill=1;" edge="1" parent="1" source="yI0ACgLMiFXfZooh-qZ1-8" target="yI0ACgLMiFXfZooh-qZ1-9">
          <mxGeometry relative="1" as="geometry">
            <Array as="points">
              <mxPoint x="640" y="495" />
            </Array>
          </mxGeometry>
        </mxCell>
        <mxCell id="yI0ACgLMiFXfZooh-qZ1-8" value="Pago" style="shape=module;align=left;spacingLeft=20;align=center;verticalAlign=top;whiteSpace=wrap;html=1;" vertex="1" parent="1">
          <mxGeometry x="560" y="340" width="160" height="70" as="geometry" />
        </mxCell>
        <mxCell id="yI0ACgLMiFXfZooh-qZ1-12" style="edgeStyle=orthogonalEdgeStyle;rounded=0;orthogonalLoop=1;jettySize=auto;html=1;dashed=1;dashPattern=8 8;" edge="1" parent="1" source="yI0ACgLMiFXfZooh-qZ1-9" target="yI0ACgLMiFXfZooh-qZ1-7">
          <mxGeometry relative="1" as="geometry" />
        </mxCell>
        <mxCell id="yI0ACgLMiFXfZooh-qZ1-9" value="Perfil usuario" style="shape=module;align=left;spacingLeft=20;align=center;verticalAlign=top;whiteSpace=wrap;html=1;" vertex="1" parent="1">
          <mxGeometry x="360" y="460" width="160" height="70" as="geometry" />
        </mxCell>
      </root>
    </mxGraphModel>
  </diagram>
</mxfile>
